<?xml version="1.0" encoding="UTF-8"?>
<svg width="2048px" height="312px" viewBox="0 0 2048 312" version="1.1" xmlns="http://www.w3.org/2000/svg" xmlns:xlink="http://www.w3.org/1999/xlink">
    <!-- Generator: Sketch 49.3 (51167) - http://www.bohemiancoding.com/sketch -->
    <title>Banner_Pay Blue</title>
    <desc>Created with Sketch.</desc>
    <defs></defs>
    <g id="Banner_Pay-Blue" stroke="none" stroke-width="1" fill="none" fill-rule="evenodd">
        <g id="Glyphs" transform="translate(1211.000000, 77.000000)" stroke="#003087">
            <path d="M90.4755305,133.131092 L131.280728,83.5747899 C136.466349,77.4571429 144,63.0672269 144,51.7764706 C144,29.2554622 127.049285,11 106.141533,11 C91.5170204,11 78.8351667,19.9310924 72.5363361,33.010084 C72.3430056,33.3865546 71.6102209,33.3226891 71.410654,32.9058824 C65.0868774,19.8840336 52.4299697,11 37.8491122,11 C16.9444781,11 0,29.2554622 0,51.7764706 C0,63.7966387 5.54421828,74.8991597 12.9749675,83.5747899 L71.8066696,157 L90.4755305,133.131092 Z M72.6390492,32.8822386 C33.4490968,88.8318184 114.826047,86.9091294 71.3921798,32.8822386" id="Stroke-9600" stroke-width="10" stroke-linecap="round" stroke-linejoin="round"></path>
            <path d="M314.934192,130.304427 L314.934192,20.6934847 C314.934192,15.2082584 319.641698,11 325.419228,11 L478.462495,11 C483.364279,11 487.722085,15.2052395 488.047874,20.5153733 L488.068797,140.979034 L516,140.979034 C514.915032,150.005355 507.305311,157 498.07561,157 L304.92439,157 C295.694689,157 288.087957,150.005355 287,140.979034 L466.046635,140.979034" id="Stroke-9262" stroke-width="10" stroke-linecap="round" stroke-linejoin="round"></path>
            <path d="M709.558756,83.1939566 L727.185878,63.0649174 C728.679194,61.4080993 730.510539,57.1029744 732.679912,50.1495429 L670.475376,50.1495429 C672.070528,56.4098867 673.938243,60.7150115 676.078521,63.0649174 L701.493565,92.8889451 L701.493565,118.195324 L682.066761,123.898335 C677.48027,125.169574 672.924585,123.315413 672.924585,117.709989 L672.924585,105.822536 L672.534355,105.592229 C655.839165,95.7736303 645,77.6939276 645,56.7282386 C645,25.3987618 670.071025,0 701.000642,0 C731.926408,0 757,25.3987618 757,56.7282386 C757,77.3061801 746.185224,95.3234268 730.000928,105.26954 L730.000928,109.755961 L730.000928,119.245365 C730.000928,124.232735 726.780243,127.365943 722.821458,128.948161 L680.72406,141.242879 L680.72406,146.079313 C680.72406,152.110218 685.549312,157 691.504178,157 L712.06573,157 C718.019312,157 722.845847,152.110218 722.845847,146.079313 L722.845847,138.168223" id="Stroke-8738" stroke-width="10" stroke-linecap="round" stroke-linejoin="round"></path>
            <path d="M176.206897,91.5 L259.71625,91.5" id="Line" stroke-width="18" stroke-linecap="square" stroke-dasharray="10,43,10"></path>
            <path d="M532.206897,91.5 L615.71625,91.5" id="Line" stroke-width="18" stroke-linecap="square" stroke-dasharray="10,43,10"></path>
        </g>
        <g id="Opportunity-Hack" transform="translate(45.000000, 55.000000)">
            <g id="Hack" transform="translate(827.000000, 29.000000)" fill="#012169">
                <g id="Group-3" transform="translate(6.692531, 0.259316)">
                    <path d="M95.1969135,81.9198213 C91.8351084,85.5939382 87.9598896,94.2525714 84.0846707,92.153076 C80.2129684,90.05001 84.601601,81.6555991 87.9598896,78.2528455 C91.3216947,74.8429508 98.5552021,65.9200954 100.62644,68.0124496 C102.504268,69.9262754 98.5552021,78.2528455 95.1969135,81.9198213 M128.530125,100.286835 C126.195148,96.8769406 119.928687,88.9288509 116.637212,69.5906417 C115.346645,61.9817563 116.116766,55.4190479 109.660412,54.6335224 C103.197025,53.8515675 87.9598896,64.6096961 80.4661588,72.7434554 C80.4661588,72.7434554 76.8511633,68.5337529 60.3129108,66.7056209 C60.3129108,66.7056209 59.5357572,24.201551 59.7994971,17.12111 C60.0526874,10.0406689 61.6105113,1.12138407 53.8565571,0.332288012 C46.1061194,-0.449666902 45.845896,7.15564802 46.1061194,9.51222447 C46.3663428,11.8830832 49.9813383,65.391651 48.4235144,68.0124496 L24.4091138,68.5408941 L24.4091138,22.6340706 C24.4091138,16.8675995 24.9119779,5.32037484 22.3343596,4.00997551 C19.7497082,2.69957618 13.2933544,2.16756119 12.2594939,6.88785524 C11.2291498,11.6117199 10.1952893,15.0216146 10.708703,17.3924733 C11.2291498,19.7526203 12.7799407,69.8512934 12.7799407,69.8512934 C12.7799407,69.8512934 4.24531625,70.111945 2.434302,70.3797378 C0.633837343,70.64396 0.113390529,74.0502842 0.373613936,75.6320468 C0.633837343,77.2030978 2.434302,80.3451997 5.27917681,80.866503 C8.12405162,81.3949474 13.8067682,80.866503 13.8067682,80.866503 C13.8067682,80.866503 14.3236985,101.593664 14.3236985,103.960952 C14.3236985,106.317529 14.8406287,108.420595 18.4591407,108.420595 C22.0706196,108.420595 25.4324247,109.995216 25.4324247,102.650553 L25.4324247,80.077407 L48.4235144,79.295452 C48.4235144,79.295452 51.2683892,117.600531 51.788836,120.492693 C52.3092828,123.374143 53.5998503,123.895447 57.7352925,123.895447 C61.8637017,123.895447 63.4180091,122.317255 63.1613022,116.804294 C62.8975623,111.305616 61.0900645,78.7634371 61.0900645,78.7634371 C61.0900645,78.7634371 74.0168381,79.295452 75.0401491,79.5596743 C75.0401491,79.5596743 66.5160742,96.084274 74.2700284,102.37919 C82.0204661,108.684817 95.7138438,102.911205 105.788709,82.1804729 C105.788709,82.1804729 111.728133,97.1375923 113.788821,100.804568 C115.863575,104.485826 122.066739,111.305616 126.195148,108.420595 C130.334107,105.532003 130.84752,103.69673 128.530125,100.286835" id="Fill-1"></path>
                </g>
                <path d="M160.798045,63.0290974 C162.855217,65.4106679 162.341803,70.9022051 157.69998,72.4732561 C153.047608,74.0478776 147.874788,75.6224992 147.101151,78.7753128 C146.327514,81.9138442 144.78024,90.0476035 149.165356,91.8864473 C153.561021,93.7288616 157.69998,92.9397655 166.477245,89.262078 C175.261544,85.5951023 183.792652,80.8676671 186.637526,84.541784 C189.478885,88.2123303 181.47174,95.8319275 177.589488,97.656489 C173.724819,99.4989033 163.635887,106.839996 150.97637,106.575774 C138.316853,106.315122 132.887327,95.2892008 133.924704,85.0595167 C134.951531,74.8369737 142.705486,64.5501604 147.618082,62.3471185 C152.527161,60.1476471 157.1725,58.8336772 160.798045,63.0290974" id="Fill-4"></path>
                <path d="M192.062481,63.2943908 C192.062481,63.2943908 192.315672,22.8969575 192.575895,16.0664563 C192.836118,9.24666691 196.971561,9.77154075 199.032249,9.77154075 C201.107003,9.77154075 203.944845,11.8710361 203.944845,17.3804262 C203.944845,22.8969575 202.39757,54.6357576 202.39757,56.9923341 C202.39757,56.9923341 215.830725,51.7471662 219.955617,50.1832564 C224.098092,48.6014937 233.395804,48.3444126 234.693405,50.6974185 C235.980456,53.0647067 236.750577,58.8347484 225.90559,61.1877543 C215.050054,63.5514719 206.782686,66.8542495 203.944845,67.9611263 C201.107003,69.060862 201.360193,71.1567868 205.492119,72.7385495 C209.620528,74.3096004 239.082038,87.9456087 241.670206,89.5273714 C244.244307,91.0984224 246.058838,95.3009837 243.47067,97.925353 C240.893052,100.546152 237.531247,100.806803 232.875358,97.925353 C228.233535,95.0367615 201.6169,82.9682336 201.6169,82.9682336 C201.6169,82.9682336 202.654277,100.546152 202.39757,103.691824 C202.137347,106.837497 200.326333,113.925079 195.941217,113.925079 C191.545551,113.925079 189.98421,110.515184 189.98421,102.642076 C189.98421,94.7689687 190.51169,78.5121618 190.51169,78.5121618 C190.51169,78.5121618 183.278183,75.6235703 183.791597,71.5531201 C184.312043,67.4933816 192.062481,63.2943908 192.062481,63.2943908" id="Fill-6"></path>
                <g id="Group-10" transform="translate(0.000000, 125.903491)">
                    <path d="M233.961966,15.6467334 C245.246519,16.9428504 256.910857,18.6817182 260.898605,20.0313938 C264.893386,21.38464 271.539633,18.3460846 274.201648,17.3320426 C276.870696,16.3180006 281.850106,13.6150788 280.51734,10.9192982 C279.184575,8.21637642 259.242319,7.205905 250.591649,5.85622939 C241.944495,4.49941265 170.439323,-5.63029553 110.591456,4.83504626 C50.7365555,15.3075292 1.18157911,36.9130506 1.5156497,42.3188942 C1.84268722,47.7175966 11.495569,42.6545278 15.4798004,40.6300144 C19.4710648,38.6019304 76.0063582,15.9859376 111.920705,13.6150788 C122.579315,12.9081059 181.42497,9.56605202 233.961966,15.6467334" id="Fill-8"></path>
                </g>
            </g>
            <text id="Opportunity" font-family="PayPalSansSmall-Regular, PayPal Sans Small" font-size="144" font-weight="normal" fill="#003087">
                <tspan x="6.97057165" y="146">Opportunity</tspan>
            </text>
        </g>
    </g>
</svg>